<?xml version="1.0" encoding="utf-8"?>
<!-- Generator: Adobe Illustrator 16.0.0, SVG Export Plug-In . SVG Version: 6.00 Build 0)  -->
<!DOCTYPE svg PUBLIC "-//W3C//DTD SVG 1.1//EN" "http://www.w3.org/Graphics/SVG/1.1/DTD/svg11.dtd">
<svg version="1.1" id="Layer_1" xmlns="http://www.w3.org/2000/svg" xmlns:xlink="http://www.w3.org/1999/xlink" x="0px" y="0px"
	 width="397.566px" height="397.093px" viewBox="177.222 177.209 397.566 397.093"
	 enable-background="new 177.222 177.209 397.566 397.093" xml:space="preserve">
<path fill="#FFFFFF" d="M281.76,186.09l43.569,43.57c2.84,2.84,5.211,6.156,6.629,9.945c4.734,11.367,2.84,24.625-6.629,34.098
	l-43.098,43.099c1.422,28.414,20.836,66.301,53.988,98.977c33.151,32.677,70.562,52.566,98.977,53.988l43.099-43.098
	c8.996-8.996,22.729-11.367,34.098-6.629c3.789,1.422,7.105,3.789,9.945,6.629l43.57,43.57c11.84,11.84,11.84,31.729,0,43.569
	l-43.57,43.57c-42.148,42.147-150.12,2.84-240.58-87.613c-90.453-90.453-129.76-197.48-87.612-240.11l43.569-43.569
	c12.313-11.836,31.73-11.836,44.043,0L281.76,186.09z"/>
</svg>
