<?xml version="1.0" encoding="utf-8"?>
<!-- Generator: Adobe Illustrator 24.0.1, SVG Export Plug-In . SVG Version: 6.00 Build 0)  -->
<svg version="1.1" id="Layer_1" xmlns="http://www.w3.org/2000/svg" xmlns:xlink="http://www.w3.org/1999/xlink" x="0px" y="0px"
	 viewBox="0 0 141.7 141.7" style="enable-background:new 0 0 141.7 141.7;" xml:space="preserve">
<style type="text/css">
	.st0{fill:#231F20;}
</style>
<g>
	<path class="st0" d="M28.5,111.5c11.2,0,22.3,0,33.5,0c0-1.2,0-2.3,0-3.5c-11.1,0-22.2,0-33.4,0c0-1.2,0-2.3,0-3.5
		c11.1,0,22.2,0,33.4,0c0-1.2,0-2.3,0-3.5c-11.1,0-22.2,0-33.5,0c0-0.5,0-0.9,0-1.2c0-24.7,0-49.4,0-74.2c0-3.7,2.1-5.9,5.9-5.9
		c13.7,0,27.4,0,41.2,0c3.8,0,5.9,2.1,5.9,5.9c0,30.2,0,60.5,0,90.7c0,3.7-2.2,5.9-5.8,5.9c-13.8,0-27.6,0-41.4,0
		c-3.6,0-5.8-2.2-5.8-5.8C28.5,114.8,28.5,113.2,28.5,111.5z M60.3,37.4c0-2.9,0-5.8,0-8.7c0-3.2-2.3-5.5-5.5-5.5
		c-5.8,0-11.5,0-17.3,0c-3.2,0-5.5,2.3-5.5,5.5c0,5.7,0,11.5,0,17.2c0,3.3,2.3,5.5,5.6,5.5c5.7,0,11.4,0,17.1,0
		c3.4,0,5.6-2.2,5.6-5.6C60.3,43,60.3,40.2,60.3,37.4z"/>
	<path class="st0" d="M85.1,26.7c0.3,0,0.6,0,0.9,0c6,0,11.9,0,17.9,0c1.7,0,2.3,0.6,2.3,2.3c0,27.9,0,55.8,0,83.6
		c0,1.7-0.6,2.3-2.3,2.3c-1.5,0-3.1,0-4.8,0c0-0.6,0-1.1,0-1.6c0-3.2-2.3-5.5-5.5-5.5c-2.8,0-5.7,0-8.6,0
		C85.1,80.9,85.1,53.9,85.1,26.7z"/>
	<path class="st0" d="M83.4,122.1c0.6-1.2,1.1-2.3,1.6-3.5c0.3,0,0.8,0,1.2,0c5.9,0,11.8,0,17.8,0c3.6,0,5.8-2.2,5.8-5.8
		c0-28,0-55.9,0-83.9c0-3.5-2.2-5.7-5.7-5.7c-6,0-11.9,0-17.9,0c-0.4,0-0.8,0-1.2,0c-0.5-1.2-1-2.3-1.6-3.5c0.4,0,0.7,0,1.1,0
		c7.7,0,15.3,0,23,0c3.7,0,5.8,2.1,5.9,5.8c0,30.3,0,60.6,0,90.8c0,3.6-2.2,5.8-5.8,5.8c-7.7,0-15.5,0-23.2,0
		C84,122.1,83.7,122.1,83.4,122.1z"/>
	<path class="st0" d="M95.6,115c-3.5,0-7,0-10.5,0c0-1.1,0-2.2,0-3.5c3,0,6,0,9,0c0.9,0,1.4,0.7,1.5,1.5
		C95.6,113.7,95.6,114.3,95.6,115z"/>
	<path class="st0" d="M46.1,47.9c-2.8,0-5.6,0-8.4,0c-1.6,0-2.2-0.6-2.2-2.2c0-5.6,0-11.2,0-16.8c0-1.6,0.6-2.2,2.2-2.2
		c5.6,0,11.2,0,16.8,0c1.6,0,2.2,0.6,2.2,2.2c0,5.6,0,11.2,0,16.8c0,1.6-0.6,2.2-2.2,2.2C51.7,47.9,48.9,47.9,46.1,47.9z"/>
</g>
</svg>
