<?xml version="1.0" encoding="utf-8"?>
<!-- Generator: Adobe Illustrator 24.0.1, SVG Export Plug-In . SVG Version: 6.00 Build 0)  -->
<svg version="1.1" id="Layer_1" xmlns="http://www.w3.org/2000/svg" xmlns:xlink="http://www.w3.org/1999/xlink" x="0px" y="0px"
	 viewBox="0 0 141.7 141.7" style="enable-background:new 0 0 141.7 141.7;" xml:space="preserve">
<style type="text/css">
	.st0{fill:#231F20;}
</style>
<g>
	<path class="st0" d="M44.1,117.8c-2.4,0-4.6,0-7,0c0,0.5,0,1,0,1.4c0,3.5,0,6.9,0,10.4c0,1.8-1,2.9-2.5,2.9c-1.5,0-2.5-1.2-2.6-2.9
		c0-3.6,0-7.3,0-10.9c0-0.8-0.2-1.1-1-1.4c-3.4-1-5.7-3.2-6.6-6.6c-0.2-0.9-0.6-1-1.4-1c-3.6,0-7.2,0-10.8,0c-1.9,0-3.1-1-3.1-2.6
		c0-1.6,1.2-2.5,3.1-2.5c3.9,0,7.7,0,11.6,0c0-2.3,0-4.6,0-7c-1,0-1.9,0-2.8,0c-2.9,0-5.9,0-8.8,0c-2,0-3.2-1.1-3.2-2.6
		c0-1.5,1.2-2.5,3.1-2.5c3.4,0,6.7,0,10.1,0c0.5,0,1,0,1.5,0c0-2.3,0-4.5,0-6.9c-0.5,0-0.9,0-1.4,0c-3.4,0-6.8,0-10.2,0
		c-1.9,0-3.1-1-3.1-2.5c0-1.6,1.2-2.6,3.2-2.6c3.8,0,7.6,0,11.5,0c0-2.3,0-4.5,0-6.9c-0.5,0-0.9-0.1-1.4-0.1c-3.5,0-7,0-10.5,0
		c-1.7,0-2.8-1.1-2.8-2.6c0-1.4,1-2.4,2.5-2.6c0.4,0,0.7,0,1.1,0c3.2,0,6.4,0,9.6,0c0.5,0,1,0,1.5,0c0-2.3,0-4.6,0-7
		c-1.2,0-2.3,0-3.5,0c-2.7,0-5.4,0-8.1,0c-2,0-3.2-1-3.2-2.6c0-1.5,1.2-2.5,3.1-2.5c3.4,0,6.7,0,10.1,0c0.5,0,1,0,1.5,0
		c0-2.3,0-4.5,0-6.9c-0.4,0-0.9-0.1-1.4-0.1c-3.5,0-6.9,0-10.4,0c-1.6,0-2.5-0.7-2.9-1.9c-0.5-1.7,0.7-3.3,2.8-3.3
		c3.5,0,6.9,0,10.4,0c0.5,0,0.9,0,1.5,0c0-2.4,0-4.6,0-7c-0.5,0-1,0-1.4,0c-3.5,0-6.9,0-10.4,0c-1.8,0-2.9-1-3-2.5
		c0-1.5,1.2-2.6,2.9-2.6c3.6,0,7.3,0,10.9,0c0.8,0,1.1-0.1,1.4-1c1-3.4,3.2-5.7,6.6-6.6c0.8-0.2,1-0.6,1-1.4c0-3.6,0-7.2,0-10.8
		c0-1.9,1-3.1,2.5-3.1c1.6,0,2.5,1.2,2.6,3.1c0,3.9,0,7.7,0,11.7c2.3,0,4.6,0,7,0c0-0.5,0-1,0-1.4c0-3.5,0-7,0-10.5
		c0-1.7,1.2-2.8,2.6-2.8c1.4,0,2.4,1.1,2.5,2.7c0,0.3,0,0.6,0,0.9c0,3.2,0,6.4,0,9.6c0,0.5,0,1,0,1.5c2.3,0,4.5,0,6.9,0
		c0-0.5,0.1-0.9,0.1-1.4c0-3.6,0-7.2,0-10.8c0-1.5,1.1-2.6,2.5-2.6c1.4,0,2.5,1.1,2.6,2.6c0,0.5,0,1,0,1.5c0,3.5,0,7,0,10.6
		c2.3,0,4.5,0,6.9,0c0-0.5,0.1-0.9,0.1-1.4c0-3.5,0-7,0-10.5c0-1.7,1.1-2.8,2.6-2.8c1.4,0,2.4,1,2.6,2.6c0,0.4,0,0.7,0,1.1
		c0,3.2,0,6.4,0,9.6c0,0.5,0,1,0,1.5c2.3,0,4.6,0,7,0c0-1.4,0-2.8,0-4.1c0-2.6,0-5.2,0-7.8c0-1.6,1.1-2.8,2.6-2.7
		c1.4,0,2.5,1.1,2.5,2.7c0,3.5,0,7,0,10.5c0,0.5,0,1,0,1.5c2.3,0,4.5,0,6.9,0c0-0.5,0.1-0.9,0.1-1.4c0-3.5,0-6.9,0-10.4
		c0-1.7,0.9-2.8,2.3-3c1.6-0.2,2.8,1,2.9,2.9c0,3.4,0,6.8,0,10.2c0,0.5,0,1,0,1.6c2.3,0,4.6,0,7,0c0-0.5,0-1,0-1.4
		c0-3.5,0-6.9,0-10.4c0-1.8,1.1-2.9,2.6-2.9c1.5,0,2.5,1.2,2.5,3c0,3.5,0,7.1,0,10.6c0,0.9,0.1,1.4,1.1,1.7c3.3,0.9,5.5,3.1,6.4,6.4
		c0.3,1.1,0.8,1.2,1.8,1.2c3.5-0.1,7,0,10.5,0c1.9,0,3.1,1,3,2.6c0,1.5-1.2,2.5-3,2.5c-3.4,0-6.8,0-10.2,0c-0.5,0-1,0-1.5,0
		c0,2.3,0,4.5,0,6.9c0.4,0,0.9,0.1,1.4,0.1c3.5,0,6.9,0,10.4,0c1.6,0,2.6,0.7,2.9,2c0.4,1.7-0.8,3.1-2.8,3.2c-3.5,0-6.9,0-10.4,0
		c-0.5,0-0.9,0-1.5,0c0,2.4,0,4.6,0,6.9c0.5,0,1,0,1.4,0c3.5,0,6.9,0,10.4,0c1.8,0,2.9,1,2.9,2.5c0,1.5-1.2,2.5-2.9,2.5
		c-3.9,0-7.8,0-11.8,0c0,2.3,0,4.6,0,7c0.9,0,1.7,0,2.5,0c3,0,6,0,9,0c2,0,3.2,1.1,3.2,2.6c0,1.5-1.2,2.5-3.1,2.5
		c-3.4,0-6.7,0-10.1,0c-0.5,0-1,0-1.5,0c0,2.3,0,4.5,0,6.9c0.5,0,0.9,0.1,1.4,0.1c3.5,0,6.9,0,10.4,0c1.8,0,3,1,3,2.5
		c0,1.6-1.2,2.6-3,2.6c-0.5,0-1,0-1.5,0c-3.4,0-6.7,0-10.2,0c0,2.3,0,4.5,0,6.9c0.5,0,0.9,0.1,1.4,0.1c3.5,0,7,0,10.5,0
		c1.7,0,2.8,1.1,2.8,2.6c0,1.4-1.1,2.5-2.7,2.6c-0.4,0-0.7,0-1.1,0c-3.1,0-6.3,0-9.4,0c-0.5,0-1,0-1.5,0c0,2.3,0,4.6,0,7
		c1.3,0,2.6,0,3.9,0c2.7,0,5.3,0,8,0c1.8,0,2.9,1.1,2.9,2.6c0,1.5-1.2,2.5-2.9,2.5c-3.6,0-7.3,0-10.9,0c-0.8,0-1.2,0.2-1.5,1.1
		c-1,3.4-3.2,5.6-6.5,6.6c-0.9,0.3-1.1,0.6-1.1,1.5c0,3.7,0,7.4,0,11.2c0,1.5-1.2,2.7-2.6,2.6c-1.4,0-2.4-1.1-2.5-2.6
		c0-0.4,0-0.7,0-1.1c0-3.2,0-6.4,0-9.6c0-0.5,0-0.9,0-1.5c-2.4,0-4.5,0-6.9,0c0,0.5-0.1,1-0.1,1.4c0,3.5,0,7,0,10.5
		c0,1.7-1.1,2.8-2.6,2.8c-1.4,0-2.4-1.1-2.6-2.5c0-0.4,0-0.7,0-1.1c0-3.2,0-6.4,0-9.6c0-0.5,0-1,0-1.5c-2.3,0-4.6,0-6.9,0
		c0,1.4,0,2.8,0,4.1c0,2.6,0,5.1,0,7.7c0,1.8-1.1,2.9-2.6,2.9c-1.5,0-2.5-1.2-2.5-2.9c0-3.5,0-6.9,0-10.4c0-0.5,0-1,0-1.5
		c-2.3,0-4.5,0-6.9,0c0,0.5-0.1,0.9-0.1,1.4c0,3.5,0,7,0,10.5c0,1.7-1.1,2.8-2.5,2.8c-1.4,0-2.4-1-2.6-2.5c0-0.4,0-0.7,0-1.1
		c0-3.2,0-6.4,0-9.6c0-0.5,0-1,0-1.6c-2.3,0-4.5,0-7,0c0,0.5,0,1,0,1.6c0,3.4,0,6.8,0,10.2c0,1.8-1.1,2.9-2.6,2.9
		c-1.5,0-2.5-1.2-2.5-3c0-3.4,0-6.8,0-10.2c0-0.5,0-1,0-1.5c-2.3,0-4.5,0-6.9,0c0,0.4-0.1,0.9-0.1,1.4c0,3.5,0,6.9,0,10.4
		c0,1.7-0.9,2.8-2.3,3c-1.6,0.2-2.9-1-2.9-3c0-3.4,0-6.8,0-10.2C44.1,118.8,44.1,118.3,44.1,117.8z M77.2,84.3c2.2,2,4.1,3.7,6,5.4
		c4,3.6,11,3.7,14.5-1.7c1.3-2,2.7-3.8,4.1-5.7c1.2-1.7,1.4-3.5,0.3-5.2c-1-1.8-2.6-2.4-4.6-2.4c-1.9,0-3.7,0-5.5-0.4
		C90,73.9,88,73.1,86,72.5c0-0.1,0.1-0.3,0.1-0.4c2.5-0.8,5-1.6,7.5-2.5c5.2-1.9,7.9-7.4,6-12.2c-1.1-2.7-2.3-5.3-3.5-7.9
		c-1-2-3.1-3-5.2-2.5c-1.6,0.4-2.7,1.4-3.4,2.9c-1.8,3.6-4.6,6.4-8.1,8.8c0.6-3,1.2-5.7,1.7-8.4c0.9-5.4-2.7-10.4-8.1-11.1
		c-2.5-0.3-5.1-0.5-7.7-0.8c-2-0.2-3.7,0.5-4.7,2.3c-1.1,1.8-0.8,3.5,0.3,5.2c1.8,2.7,2.8,5.7,3.3,8.9c0.1,0.7,0.2,1.5,0.4,2.6
		c-2.2-2-4.2-3.7-6.1-5.4c-4-3.6-11-3.6-14.4,1.6c-1.3,2-2.7,3.8-4.1,5.7c-1.2,1.7-1.4,3.4-0.4,5.2c1,1.9,2.7,2.5,4.8,2.5
		c1.8,0,3.7,0,5.4,0.4c2.1,0.4,4.1,1.2,6.1,1.8c0,0.1-0.1,0.3-0.1,0.4c-2.5,0.8-5,1.6-7.5,2.5c-5.3,1.9-8.4,7.9-5.7,13.3
		c1,2.1,1.9,4.2,2.9,6.3c0.9,1.9,2.3,3,4.4,3.1c2.1,0,3.5-1,4.4-2.8c1.3-2.7,3.3-5,5.5-6.9c0.8-0.7,1.6-1.3,2.6-2.1
		c-0.6,3-1.2,5.7-1.7,8.4c-0.9,5,2.5,10.2,7.2,11c3.1,0.5,6.2,0.7,9.3,0.9c2.4,0.1,4.3-1.6,4.7-3.8c0.2-1.5-0.3-2.8-1.1-4
		C78.5,92.2,77.5,88.6,77.2,84.3z"/>
	<path class="st0" d="M63.4,71.7c0-4,3.2-7.3,7.3-7.2c4,0,7.2,3.3,7.2,7.2c0,4-3.2,7.2-7.3,7.2C66.5,78.9,63.4,75.7,63.4,71.7z"/>
</g>
</svg>
