<?xml version="1.0" encoding="utf-8"?>
<!-- Generator: Adobe Illustrator 24.0.1, SVG Export Plug-In . SVG Version: 6.00 Build 0)  -->
<svg version="1.1" id="Layer_1" xmlns="http://www.w3.org/2000/svg" xmlns:xlink="http://www.w3.org/1999/xlink" x="0px" y="0px"
	 viewBox="0 0 141.7 141.7" style="enable-background:new 0 0 141.7 141.7;" xml:space="preserve">
<style type="text/css">
	.st0{fill:#231F20;}
</style>
<g>
	<path class="st0" d="M131.3,100.4c0,2.4,0,4.9,0,7.3c-3.8,0-7.5,0-11.3,0c-0.1,0-0.1,0.1-0.3,0.2c0,3.9,0,7.8,0,11.9
		c-3.1,0-6.1,0-9.3,0c0,3.9,0,7.7,0,11.5c-2.4,0-4.7,0-7.1,0c0-3.8,0-7.6,0-11.4c-2.5,0-4.9,0-7.3,0c0,3.9,0,7.6,0,11.4
		c-2.4,0-4.7,0-7.1,0c0-3.9,0-7.6,0-11.4c-2.5,0-4.8,0-7.3,0c0,3.9,0,7.6,0,11.4c-2.4,0-4.7,0-7.1,0c0-3.8,0-7.6,0-11.4
		c-2.5,0-4.8,0-7.3,0c0,3.8,0,7.6,0,11.4c-2.4,0-4.7,0-7.1,0c0-3.9,0-7.6,0-11.4c-2.5,0-4.8,0-7.3,0c0,3.8,0,7.6,0,11.4
		c-2.4,0-4.7,0-7.1,0c0-3.9,0-7.6,0-11.4c-2.5,0-4.8,0-7.3,0c0,3.8,0,7.6,0,11.4c-2.4,0-4.7,0-7.1,0c0-3.8,0-7.6,0-11.5
		c-3.2,0-6.2,0-9.3,0c0-4.1,0-8,0-12.1c-0.6,0-1,0-1.5,0c-3.3,0-6.7,0.1-10,0.1c0-2.4,0-4.7,0-7.1c3.3,0,6.6-0.1,10-0.1
		c0.5,0,1,0,1.5-0.1c0-2.1,0-4.1,0-6.2c-3.9,0-7.7,0-11.5,0c0-2.4,0-4.7,0-7.1c3.8,0,7.7,0,11.5,0c0-4.3,0-8.5,0-12.7
		c-3.9,0-7.7,0-11.5,0c0-2.4,0-4.7,0-7.1c3.8,0,7.7,0,11.5,0c0-4.4,0-8.6,0-12.7c-3.9,0-7.7,0-11.5,0c0-2.4,0-4.7,0-7.1
		c3.8,0,7.6,0,11.5,0c0-2.2,0-4.2,0-6.3c-1.4,0-2.7,0-4,0c-2.5,0-5-0.1-7.5-0.1c0-2.4,0-4.7,0-7.1c3.8,0,7.5,0,11.3,0
		c0.1,0,0.1-0.1,0.3-0.2c0-3.9,0-7.8,0-11.9c3.1,0,6.2,0,9.3,0c0-1.3,0-2.6,0-3.8c0-2.6,0.1-5.2,0.1-7.8c2.4,0,4.7,0,7.1,0
		c0,3.8,0,7.5,0,11.3c0,0.1,0.1,0.1,0.1,0.2c2.3,0,4.7,0,7.1,0c0-1.4,0-2.7,0-3.9c0-2.5,0.1-5,0.1-7.5c2.4,0,4.7,0,7.1,0
		c0,3.8,0,7.5,0,11.3c0,0.1,0.1,0.1,0.1,0.2c2.3,0,4.7,0,7.1,0c0-1.4,0-2.7,0-3.9c0-2.5,0.1-5,0.1-7.5c2.4,0,4.7,0,7.1,0
		c0,3.8,0,7.5,0,11.3c0,0.1,0.1,0.1,0.1,0.2c2.3,0,4.7,0,7.1,0c0-1.4,0-2.7,0-3.9c0-2.5,0.1-5,0.1-7.5c2.4,0,4.7,0,7.1,0
		c0,3.8,0,7.5,0,11.3c0,0.1,0.1,0.1,0.1,0.2c2.3,0,4.7,0,7.1,0c0-1.4,0-2.7,0-3.9c0-2.5,0.1-5,0.1-7.5c2.4,0,4.7,0,7.1,0
		c0,3.8,0,7.5,0,11.3c0,0.1,0.1,0.1,0.1,0.2c2.3,0,4.7,0,7.1,0c0-1.6,0-3.1,0-4.7c0-2.3-0.1-4.5-0.1-6.8c2.4,0,4.9,0,7.3,0
		c0,3.8,0,7.5,0,11.3c0,0.1,0.1,0.1,0.2,0.3c2.9,0,5.9,0,9.1,0c0,4.1,0,8.1,0,12.2c1.3,0,2.6,0,3.8,0c2.6,0,5.2-0.1,7.8-0.1
		c0,2.4,0,4.7,0,7.1c-3.1,0-6.2,0.1-9.3,0.1c-0.7,0-1.5,0-2.2,0c0,2.1,0,4.1,0,6.3c3.9,0,7.7,0,11.5,0c0,2.4,0,4.7,0,7.1
		c-3.8,0-7.6,0-11.5,0c0,4.3,0,8.4,0,12.7c0.6,0,1.1,0,1.6,0c3.3,0,6.6,0.1,9.9,0.1c0,2.4,0,4.7,0,7.1c-3.8,0-7.6,0-11.5,0
		c0,4.3,0,8.5,0,12.7c3.9,0,7.7,0,11.5,0c0,2.4,0,4.7,0,7.1c-3.8,0-7.6,0-11.5,0c0,2.2,0,4.1,0,6.3c0.7,0,1.3,0,1.9,0
		C124.9,100.5,128.1,100.4,131.3,100.4z M104.8,37c-22.7,0-45.3,0-67.8,0c0,22.7,0,45.3,0,67.8c22.7,0,45.2,0,67.8,0
		C104.8,82.2,104.8,59.6,104.8,37z"/>
	<path class="st0" d="M97.7,44.1c0,17.9,0,35.8,0,53.7c-17.9,0-35.7,0-53.7,0c0-17.9,0-35.7,0-53.7C61.9,44.1,79.8,44.1,97.7,44.1z"
		/>
</g>
</svg>
