<?xml version="1.0" encoding="utf-8"?>
<!-- Generator: Adobe Illustrator 24.0.1, SVG Export Plug-In . SVG Version: 6.00 Build 0)  -->
<svg version="1.1" id="Layer_1" xmlns="http://www.w3.org/2000/svg" xmlns:xlink="http://www.w3.org/1999/xlink" x="0px" y="0px"
	 viewBox="0 0 141.7 141.7" style="enable-background:new 0 0 141.7 141.7;" xml:space="preserve">
<style type="text/css">
	.st0{fill:#231F20;}
</style>
<g>
	<path class="st0" d="M30.8,103.2c0,2.3,0,4.6,0,7c-0.1,4-3.5,6.4-7.3,5.2c-2.1-0.7-3.5-2.4-3.6-4.7c0-0.5,0-1,0-1.5
		c0-24.3,0-48.5,0-72.8c0-0.5,0-0.9,0-1.5c-0.6,0-1.1,0-1.7,0c-3-0.1-5.1-2.4-5.1-5.5c0-3,2.1-5.3,5.1-5.4c2.3-0.1,4.7,0,7,0
		c3.2,0,5.5,2.4,5.6,5.5c0,2.4,0,4.8,0,6.9c2.1-0.2,4-0.5,6-0.5c10.9,0,21.9,0,32.8,0c1.1,0,2.2,0.4,3.2,0.8
		c1.1,0.4,2.1,1.1,3.2,1.7c1.2,0.7,2.4,0.7,3.6,0c1.1-0.6,2.1-1.3,3.3-1.8c0.9-0.4,2-0.8,3-0.8c11.5-0.1,23.1,0,34.6,0
		c5.2,0,8.2,2.9,8.2,8.1c0,17.2,0,34.5,0,51.7c0,5.1-3,8.1-8.1,8.1c-5.9,0-11.7,0-17.8,0c0,0.5,0,0.9,0,1.3c0,3.4,0,6.8,0,10.1
		c0,1.7-0.7,2.4-2.4,2.4c-20.4,0-40.8,0-61.2,0c-1.8,0-2.5-0.6-2.5-2.4c0-3.7,0-7.4,0-11.1C34.7,103.9,32.8,103.6,30.8,103.2z
		 M100.3,91.2c11.7,0,21.3-9.4,21.3-21c0.1-11.9-9.4-21.5-21.2-21.5c-11.7,0-21.3,9.4-21.3,21C79,81.6,88.4,91.2,100.3,91.2z
		 M76.6,70C76.5,58,67,48.6,55,48.7c-11.5,0.1-21,9.7-21,21c0.1,12,9.5,21.5,21.3,21.5C67.1,91.1,76.7,81.6,76.6,70z M27.1,70.1
		c0-13.2,0-26.3,0-39.5c0-0.4,0-0.8,0-1.2c-0.1-1-0.7-1.6-1.7-1.6c-2.3,0-4.6,0-6.9,0c-1,0-1.7,0.8-1.7,1.7c0,0.9,0.7,1.6,1.7,1.7
		c0.7,0,1.5,0,2.2,0c2.4,0,2.8,0.5,2.8,2.9c0,25.1,0,50.2,0,75.3c0,1.8,0.6,2.6,1.8,2.6c1.2,0,1.7-0.9,1.7-2.7
		C27.1,96.3,27.1,83.2,27.1,70.1z M99,103.9c-3.2,0-6.3-0.2-9.4,0c-3.6,0.2-6.9-0.3-9.8-2.5c-0.2-0.1-0.3-0.2-0.5-0.3
		c-1-0.6-2.1-0.5-3.1,0c-1.1,0.6-2.2,1.3-3.4,1.8c-1,0.4-2.1,0.8-3.2,0.8c-9.3,0.1-18.5,0-27.8,0c-0.5,0-0.9,0-1.4,0
		c0,1.4,0,2.6,0,4c19.5,0,39,0,58.6,0C99,106.5,99,105.3,99,103.9z"/>
	<path class="st0" d="M105.9,76.5c1.8-1.7,3.1-3.6,3-6c-0.1-1.8,0.6-3.2,1.5-4.6c1.6-2.6,1.9-5.5,1.1-8.5c-0.1-0.2-0.1-0.4-0.2-0.7
		c0-0.1,0-0.1,0.1-0.4c4.5,4.2,7.2,9,6.2,15.3C116.7,77,110.7,79.5,105.9,76.5z"/>
	<path class="st0" d="M86.8,59c4.2-4.7,9.2-7.5,15.6-6.2c5.1,1,7.4,7.1,4.5,11.6c-1.4-1.5-3.1-2.6-5.1-2.9c-0.1,0-0.2-0.1-0.3-0.1
		c-2.2,0.4-3.9-0.7-5.7-1.8c-2.4-1.4-5.1-1.6-7.8-0.9C87.6,58.8,87.2,58.9,86.8,59z"/>
	<path class="st0" d="M113.9,80.8c-3.4,4.8-10.5,7.6-15.7,6.3c-5.1-1.2-7.5-7.4-4.4-11.7c1.4,1.6,3.1,2.6,5.2,2.9
		c0.2,0,0.3,0.1,0.5,0.1c2-0.4,3.5,0.6,5.1,1.6C107.4,81.8,110.6,81.9,113.9,80.8z"/>
	<path class="st0" d="M94.8,63.4c-2.3,2.2-3.3,4.8-3,7.8c0,0.3-0.1,0.7-0.3,0.9c-2.6,3.2-3.4,6.8-2.3,10.8c0,0.1,0,0.2,0,0.5
		c-0.3-0.3-0.6-0.4-0.8-0.7c-3.9-3.8-6.1-8.3-5.4-13.9C83.6,63.1,89.8,60.2,94.8,63.4z"/>
	<path class="st0" d="M95.5,70c0-2.8,1.9-4.9,4.8-4.9c2.9,0,5,2,5,4.9c0,2.8-2.1,4.8-4.9,4.8C97.5,74.8,95.5,72.8,95.5,70z"/>
	<path class="st0" d="M66.2,56.3c4.8,3.2,7.7,10.7,6.3,15.9c-1.4,5-7.1,7.2-11.5,4.4c0.7-1,1.7-1.9,2-3.1c0.5-1.5,0.6-3.1,0.8-4.6
		c0.1-0.4,0-1,0.3-1.3C66.8,64.3,67.5,60.6,66.2,56.3z"/>
	<path class="st0" d="M48.8,75.5c2.2,2.3,4.8,3.4,7.9,3c0.3,0,0.6,0.1,0.8,0.3c4,2.8,6.5,3.3,11.3,2.2c0,0.1,0,0.2-0.1,0.3
		c-3.8,4.3-8.4,6.6-14.3,6.2C48.6,86.9,45.4,80.4,48.8,75.5z"/>
	<path class="st0" d="M61.9,64.3c-1.9-2-4.2-3.2-7-3c-1,0.1-1.7-0.2-2.5-0.8c-3.2-2.3-6.7-2.8-10.7-1.6c2.3-2.9,5.1-4.8,8.4-5.9
		c2.7-0.9,5.4-1.1,8.1-0.2C62.8,54.5,64.7,60.3,61.9,64.3z"/>
	<path class="st0" d="M49.7,63.4c-1.7,1.6-3,3.5-2.9,5.8c0.1,1.9-0.6,3.2-1.6,4.7c-1.8,2.9-1.9,6.1-0.9,9.5
		c-0.4-0.3-0.6-0.4-0.8-0.6c-4-3.9-6.3-8.5-5.5-14.3C38.8,63,45.2,60.1,49.7,63.4z"/>
	<path class="st0" d="M60.2,69.9c0,2.7-2.2,4.9-4.9,4.9c-2.7,0-4.9-2.2-4.9-4.9c0-2.7,2.2-4.9,4.9-4.9C58,65.1,60.2,67.2,60.2,69.9z
		"/>
</g>
</svg>
