<?xml version="1.0" encoding="utf-8"?>
<!-- Generator: Adobe Illustrator 24.0.1, SVG Export Plug-In . SVG Version: 6.00 Build 0)  -->
<svg version="1.1" id="Layer_1" xmlns="http://www.w3.org/2000/svg" xmlns:xlink="http://www.w3.org/1999/xlink" x="0px" y="0px"
	 viewBox="0 0 141.7 141.7" style="enable-background:new 0 0 141.7 141.7;" xml:space="preserve">
<style type="text/css">
	.st0{fill:#FECF0A;}
	.st1{fill:#231F20;}
</style>
<g>
	<path class="st0" d="M67.2,23.2c-30.4,0-55.1,24.7-55.1,55.1v40.6h63.5c29.8,0,54-24.2,54-54V23.2H67.2z"/>
	<g>
		<g>
			<path d="M43.6,67.5l0,4.4l4.6,0l0-4.4l2,0l0,10.9l-2,0l0-4.8l-4.6,0l0,4.8l-2,0l0-10.9L43.6,67.5z"/>
			<path d="M58.6,73.6l-4.1,0l0,3.2l4.6,0l0,1.6l-6.6,0l0-10.9l6.3,0l0,1.6l-4.4,0l0,2.8l4.1,0L58.6,73.6z"/>
			<path d="M60.8,67.7c0.7-0.1,1.9-0.2,3-0.2c1.6,0,2.6,0.3,3.4,0.9c0.6,0.5,0.9,1.3,0.9,2.2c0,1.4-1,2.4-2,2.7v0
				c0.8,0.3,1.2,1.1,1.5,2.1c0.3,1.4,0.6,2.6,0.9,3l-2.1,0c-0.2-0.3-0.4-1.2-0.7-2.6c-0.3-1.4-0.8-1.9-2-1.9h-1l0,4.5l-2,0
				L60.8,67.7z M62.8,72.5H64c1.3,0,2.2-0.7,2.2-1.8c0-1.2-0.8-1.7-2.1-1.7c-0.6,0-1,0-1.2,0.1L62.8,72.5z"/>
			<path d="M76.1,73.6l-4.1,0l0,3.2l4.6,0l0,1.6l-6.6,0l0-10.9l6.3,0v1.6l-4.4,0l0,2.8l4.1,0V73.6z"/>
			<path d="M83.1,69.2l-3.1,0v-1.7l8.2,0v1.7l-3.1,0l0,9.2l-2,0L83.1,69.2z"/>
			<path d="M98.8,72.8c0,3.7-2.2,5.7-5.2,5.8c-3.1,0-5-2.3-5-5.5c0-3.4,2.1-5.7,5.2-5.7C96.9,67.3,98.8,69.7,98.8,72.8z M90.6,73
				c0,2.2,1.1,4,3,4c1.9,0,3-1.8,3-4.1c0-2.1-1-4-3-4C91.7,68.9,90.6,70.8,90.6,73z"/>
			<path d="M45.8,85.9l0,7l7.4,0l0-7l3.2,0l0,17.5l-3.2,0l0-7.7l-7.4,0l0,7.7l-3.2,0l0-17.5L45.8,85.9z"/>
			<path d="M69.9,95.7l-6.6,0l0,5.1l7.4,0l0,2.6l-10.6,0l0-17.5l10.2,0l0,2.6l-7,0l0,4.5l6.6,0L69.9,95.7z"/>
			<path d="M73.5,85.9l3.2,0l0,14.8l7.2,0l0,2.7l-10.4,0L73.5,85.9z"/>
			<path d="M86.3,86.1c1.1-0.2,2.7-0.4,4.9-0.4c2.3,0,4.1,0.5,5.2,1.4c1,0.9,1.7,2.2,1.7,3.9c0,1.7-0.5,3-1.5,4
				c-1.3,1.3-3.3,1.9-5.5,1.9c-0.6,0-1.1,0-1.6-0.1l0,6.6l-3.2,0L86.3,86.1z M89.5,94.3c0.4,0.1,0.9,0.1,1.6,0.1
				c2.4,0,3.8-1.2,3.8-3.2c0-2-1.4-3-3.6-3c-0.9,0-1.5,0.1-1.8,0.2L89.5,94.3z"/>
		</g>
		<g>
			<path d="M78.4,60.7c-0.1,0-0.2-0.1-0.3-0.1c-0.5-0.1-1-0.4-1.3-0.8c-2.5-2.5-5-5-7.5-7.5c-0.5-0.5-0.5-0.9,0-1.4
				c0.1-0.1,0.3-0.2,0.4-0.3c-2.8-2.8-5.6-5.6-8.4-8.4c-0.1,0.1-0.1,0.2-0.3,0.3c-0.4,0.4-1,0.4-1.3-0.1c-0.8-1.1-1.6-2.2-2.4-3.3
				c-0.3-0.4-0.3-0.8,0.1-1.2c0.5-0.5,0.9-0.9,1.4-1.4c0.3-0.3,0.8-0.4,1.1-0.1c1.1,0.8,2.2,1.6,3.3,2.5c0.5,0.4,0.5,0.9,0.1,1.3
				c-0.1,0.1-0.2,0.2-0.3,0.3c2.8,2.8,5.6,5.6,8.4,8.4c0.1-0.1,0.2-0.2,0.3-0.4c0.5-0.5,0.9-0.5,1.4,0c2.1,2.1,4.2,4.2,6.3,6.3
				c0.5,0.5,0.9,0.9,1.4,1.4c1.2,1.3,0.8,3.5-0.8,4.2c-0.3,0.1-0.5,0.2-0.8,0.2C78.8,60.7,78.6,60.7,78.4,60.7z"/>
			<path d="M59.3,60.7c-0.6-0.1-1.1-0.3-1.5-0.7c-1-1-1.1-2.6-0.2-3.6c0.1-0.1,0.1-0.1,0.2-0.2c2.5-2.5,5.1-5.1,7.6-7.6
				c0,0,0.1-0.1,0.2-0.2c0.4,0.4,0.7,0.7,1.1,1.1c0.3,0.3,0.7,0.7,1,1c0.1,0.1,0.1,0.2,0.1,0.2c-0.3,0.9-0.2,1.6,0.4,2.3
				c0,0,0,0,0,0.1c-0.1,0.1-0.1,0.1-0.2,0.2c-2,2-4.1,4.1-6.1,6.1c-0.6,0.6-1.2,1.1-2,1.2C59.7,60.7,59.5,60.7,59.3,60.7z"/>
			<path d="M73.8,47.5c-0.5-0.4-1-0.7-1.6-0.6c-0.3,0-0.5,0.1-0.8,0.2c-0.1,0-0.2,0-0.2,0c-0.7-0.7-1.4-1.4-2.2-2.1
				c0.1-0.1,0.1-0.1,0.2-0.2c0.5-0.5,1.1-1.1,1.6-1.6c0.1-0.1,0.1-0.2,0.1-0.3c-0.7-2.3-0.3-4.4,1.4-6.2c1.4-1.4,3.1-2.1,5-1.9
				c0.1,0,0.3,0,0.4,0c0.2,0,0.4,0.2,0.5,0.4c0.1,0.2,0,0.4-0.2,0.6c-0.4,0.4-0.8,0.8-1.2,1.2c-0.4,0.4-0.7,0.9-0.8,1.4
				c-0.4,1.8,1.1,3.5,3,3.3c0.6-0.1,1.2-0.3,1.6-0.8c0.4-0.4,0.8-0.8,1.2-1.2c0.2-0.2,0.4-0.3,0.7-0.2c0.3,0.1,0.3,0.3,0.4,0.6
				c0.2,1.4-0.1,2.6-0.7,3.8c-1.1,2-3.6,3.4-5.9,3.1c-0.5-0.1-0.9-0.2-1.4-0.3c-0.1,0-0.2,0-0.3,0.1C74.3,47,74.1,47.3,73.8,47.5z"
				/>
		</g>
	</g>
	<g>
		<path class="st1" d="M75.4,116.3H15.5V77.8c0-28.7,23.3-52,52-52h58.8v39.5C126.3,93.4,103.4,116.3,75.4,116.3z M16.5,115.3h58.9
			c27.5,0,49.9-22.4,49.9-49.9V26.9H67.5c-28.1,0-51,22.9-51,51V115.3z"/>
	</g>
</g>
</svg>
