<?xml version="1.0" encoding="utf-8"?>
<!-- Generator: Adobe Illustrator 16.0.0, SVG Export Plug-In . SVG Version: 6.00 Build 0)  -->
<!DOCTYPE svg PUBLIC "-//W3C//DTD SVG 1.1//EN" "http://www.w3.org/Graphics/SVG/1.1/DTD/svg11.dtd">
<svg version="1.1" id="Layer_1" xmlns="http://www.w3.org/2000/svg" xmlns:xlink="http://www.w3.org/1999/xlink" x="0px" y="0px"
	 width="50px" height="50px" viewBox="0 0 50 50" enable-background="new 0 0 50 50" xml:space="preserve">
<g>
	<path fill="#FFFFFF" d="M17.657,49.999c-0.926-0.214-1.818-0.496-2.598-1.079c-1.952-1.47-2.688-4.063-1.784-6.344
		c0.909-2.289,3.261-3.684,5.707-3.378c2.4,0.3,4.327,2.192,4.674,4.589c0.423,2.914-1.496,5.59-4.384,6.122
		c-0.089,0.017-0.175,0.059-0.263,0.09H17.657z M21.359,44.505c-0.057-1.707-1.475-3.06-3.137-2.987
		c-1.706,0.071-3.035,1.483-2.974,3.159c0.059,1.666,1.494,3.03,3.118,2.962C20.091,47.57,21.414,46.184,21.359,44.505"/>
	<path fill="#FFFFFF" d="M38.991,50c-0.976-0.221-1.906-0.531-2.712-1.168c-1.885-1.479-2.568-4.098-1.637-6.344
		c0.924-2.231,3.26-3.583,5.67-3.288c2.396,0.296,4.352,2.213,4.676,4.585c0.406,2.97-1.485,5.586-4.43,6.128
		c-0.076,0.015-0.145,0.06-0.217,0.087H38.991z M42.691,44.578c0.004-1.686-1.389-3.077-3.065-3.064
		c-1.66,0.012-3.032,1.383-3.048,3.043c-0.014,1.676,1.363,3.074,3.05,3.088C41.302,47.658,42.688,46.271,42.691,44.578"/>
	<path fill="#FFFFFF" d="M14.571,28.061c0.171,0.961,0.293,1.84,0.488,2.698c0.372,1.632,1.676,2.697,3.351,2.737
		c1.479,0.031,2.96,0.011,4.441,0.011c6.738,0,13.48,0,20.223,0.002c0.255,0,0.517,0.021,0.764,0.07
		c0.536,0.11,0.895,0.567,0.9,1.103c0.004,0.553-0.372,1.025-0.93,1.131c-0.25,0.047-0.511,0.062-0.766,0.063
		c-7.949,0.002-15.896-0.053-23.843,0.027c-3.587,0.037-6.132-2.104-6.681-5.695C11.6,24.169,10.504,18.161,9.482,12.14
		c-0.336-1.98-0.678-3.96-0.999-5.943C8.15,4.122,6.789,2.934,4.679,2.917c-1.062-0.01-2.124-0.002-3.185-0.021
		c-0.484-0.01-0.82-0.287-0.995-0.721c-0.167-0.414-0.135-0.862,0.2-1.161c0.244-0.217,0.608-0.418,0.922-0.422
		c1.38-0.021,2.77-0.029,4.144,0.072C7.866,0.818,10.01,2.6,10.504,4.649c0.402,1.669,0.667,3.371,0.949,5.065
		c0.068,0.404,0.223,0.479,0.589,0.479c5.39-0.01,10.781-0.008,16.168-0.008c6.599,0,13.194,0,19.791,0.002
		c0.24,0,0.487-0.006,0.722,0.043c0.687,0.143,1.043,0.832,0.805,1.587c-0.721,2.284-1.451,4.562-2.188,6.838
		c-0.557,1.71-1.024,3.458-1.72,5.111c-1.072,2.55-3.088,3.954-5.855,4.226c-0.621,0.061-1.252,0.064-1.877,0.064
		c-7.546,0.004-15.092,0.002-22.638,0.002h-0.678V28.061z M14.175,25.689h0.458c8.106,0,16.21,0.002,24.317-0.002
		c2.393-0.002,4.047-1.223,4.782-3.507c0.984-3.057,1.965-6.113,2.947-9.169c0.047-0.143,0.077-0.293,0.117-0.447H11.949
		C12.692,16.948,13.43,21.298,14.175,25.689"/>
</g>
</svg>
