<?xml version="1.0" encoding="utf-8"?>
<!-- Generator: Adobe Illustrator 16.0.0, SVG Export Plug-In . SVG Version: 6.00 Build 0)  -->
<!DOCTYPE svg PUBLIC "-//W3C//DTD SVG 1.1//EN" "http://www.w3.org/Graphics/SVG/1.1/DTD/svg11.dtd">
<svg version="1.1" id="Layer_1" xmlns="http://www.w3.org/2000/svg" xmlns:xlink="http://www.w3.org/1999/xlink" x="0px" y="0px"
	 width="84.371px" height="84.369px" viewBox="0 0 84.371 84.369" enable-background="new 0 0 84.371 84.369" xml:space="preserve">
<path fill="#FFCE01" d="M37.928,44.12l0.234-0.182c-1.287-1.807-2.048-4.016-2.048-6.402h-0.422l-21.945,0.853
	c0.26,6.736,2.548,13.406,6.866,19.018L37.928,44.12z"/>
<path fill="#FFCE01" d="M18.611,0L8.284,10.328l2.083,8.049c-2.749,5.241-4.355,11.121-4.661,17.06L0,41.241l4.333,16.167
	l7.629,2.114c1.646,2.617,3.59,5.056,5.786,7.25c2.16,2.162,4.554,4.078,7.119,5.705l2.095,7.56l16.167,4.332l5.637-5.539
	c6.105-0.267,12.146-1.903,17.521-4.75l7.756,2.006l10.328-10.327L18.611,0z M73.375,73.636L66,71.728l-0.383,0.207
	c-5.297,2.879-11.299,4.508-17.357,4.707l-0.43,0.018l-5.348,5.256l-13.731-3.682l-1.988-7.174l-0.366-0.227
	c-2.561-1.586-4.946-3.477-7.089-5.619c-2.177-2.178-4.094-4.605-5.697-7.217l-0.227-0.369l-7.247-2.01l-3.68-13.73l5.415-5.509
	l0.018-0.425c0.241-5.897,1.839-11.746,4.623-16.915l0.205-0.381l-1.983-7.662l7.877-7.877l62.64,62.64L73.375,73.636z"/>
<path fill="#FFCE01" d="M36.402,35.034c0.497-2.146,1.619-4.049,3.164-5.513l-1.006-1.076L23.555,13.439
	c-0.021,0.021-0.042,0.04-0.063,0.061c-4.893,4.893-7.948,10.927-9.166,17.245l21.437,4.154L36.402,35.034z"/>
<path fill="#FFCE01" d="M25.948,62.911c5.491,4.507,12.083,6.994,18.791,7.464l1.539-21.826c-2.432-0.194-4.641-1.174-6.373-2.687
	L25.948,62.911z"/>
<path fill="#FFCE01" d="M52.682,42.89L41.631,31.841c-0.068,0.064-0.142,0.121-0.209,0.189c-3.057,3.056-3.057,8.012,0,11.069
	s8.014,3.057,11.07,0C52.559,43.032,52.617,42.959,52.682,42.89"/>
<path fill="#FFCE01" d="M55.607,45.496L55.607,45.496l-0.389-0.396l-0.017,0.016c-1.638,1.734-3.826,2.939-6.289,3.332l0.047,0.285
	l3.437,21.299c6.692-1.072,13.121-4.188,18.278-9.346c0.021-0.021,0.041-0.041,0.062-0.063L55.664,45.549L55.607,45.496z"/>
</svg>
