<?xml version="1.0" encoding="utf-8"?>
<!-- Generator: Adobe Illustrator 16.0.0, SVG Export Plug-In . SVG Version: 6.00 Build 0)  -->
<!DOCTYPE svg PUBLIC "-//W3C//DTD SVG 1.1//EN" "http://www.w3.org/Graphics/SVG/1.1/DTD/svg11.dtd">
<svg version="1.1" id="Layer_1" xmlns="http://www.w3.org/2000/svg" xmlns:xlink="http://www.w3.org/1999/xlink" x="0px" y="0px"
	 width="413.914px" height="285.104px" viewBox="169.045 239.129 413.914 285.104"
	 enable-background="new 169.045 239.129 413.914 285.104" xml:space="preserve">
<g>
	<path fill="#FFFFFF" d="M579.17,508.131c2.367-4.262,3.789-9.473,3.789-14.681V269.92c0-5.211-1.422-9.945-3.316-14.207
		l-138.29,107.5L579.17,508.131z"/>
	<path fill="#FFFFFF" d="M369.369,390.68c2.84,2.367,6.629,2.367,9.473,0l188.96-147.29c-4.734-2.84-9.945-4.262-16.102-4.262
		h-351.39c-4.734,0-9.473,1.422-13.734,3.316L369.369,390.68z"/>
	<path fill="#FFFFFF" d="M428.09,373.63l-38.832,30.31c-4.262,3.316-9.945,5.211-15.156,5.211c-5.684,0-10.891-1.895-15.629-5.684
		l-36.938-29.836l-137.34,146.34c4.734,2.84,9.945,4.262,15.63,4.262h351.399c5.684,0,10.891-1.422,15.629-4.262L428.09,373.63z"/>
	<path fill="#FFFFFF" d="M173.78,253.34c-2.839,4.734-4.734,10.418-4.734,16.574v223.051c0,5.211,1.422,10.418,3.789,14.68
		l135.92-144.91L173.78,253.34z"/>
</g>
</svg>
