<?xml version="1.0" encoding="utf-8"?>
<!-- Generator: Adobe Illustrator 24.0.1, SVG Export Plug-In . SVG Version: 6.00 Build 0)  -->
<svg version="1.1" id="Layer_1" xmlns="http://www.w3.org/2000/svg" xmlns:xlink="http://www.w3.org/1999/xlink" x="0px" y="0px"
	 viewBox="0 0 141.7 141.7" style="enable-background:new 0 0 141.7 141.7;" xml:space="preserve">
<style type="text/css">
	.st0{fill:#231F20;}
</style>
<g>
	<path class="st0" d="M14.2,34.4c0-6.7,0-13.4,0-20.1c11.1,0,22.3,0,33.4,0c0,2.3,0,4.5,0,6.8c15.6,0,31,0,46.4,0c0-2.3,0-4.5,0-6.8
		c11.1,0,22.3,0,33.4,0c0,6.7,0,13.4,0,20.1c-4.4,0-8.8,0-13.2,0c0,24.4,0,48.7,0,73c4.4,0,8.8,0,13.2,0c0,6.7,0,13.4,0,20.1
		c-11.1,0-22.3,0-33.4,0c0-2.2,0-4.4,0-6.6c-15.6,0-31,0-46.4,0c0,2.2,0,4.4,0,6.6c-11.1,0-22.3,0-33.4,0c0-6.7,0-13.4,0-20.1
		c4.4,0,8.8,0,13.2,0c0-24.4,0-48.7,0-73C23,34.4,18.6,34.4,14.2,34.4z M47.7,94.1c2.3,0,4.4,0,6.7,0c0,2.2,0,4.4,0,6.5
		c2.2,0,4.4,0,6.6,0c0-2.2,0-4.4,0-6.5c2.3,0,4.4,0,6.7,0c0,2.2,0,4.3,0,6.5c2.2,0,4.4,0,6.7,0c0-2.2,0-4.4,0-6.5c2.2,0,4.4,0,6.6,0
		c0,2.2,0,4.4,0,6.5c2.3,0,4.4,0,6.7,0c0-2.2,0-4.3,0-6.6c2.2,0,4.4,0,6.6,0c0-2.2,0-4.4,0-6.6c2.2,0,4.4,0,6.5,0c0-2.3,0-4.4,0-6.7
		c-2.2,0-4.3,0-6.5,0c0-2.2,0-4.4,0-6.7c2.2,0,4.4,0,6.5,0c0-2.2,0-4.4,0-6.6c-2.2,0-4.4,0-6.5,0c0-2.3,0-4.4,0-6.7
		c2.2,0,4.3,0,6.5,0c0-2.2,0-4.4,0-6.6c-2.2,0-4.3,0-6.6,0c0-2.2,0-4.4,0-6.7c-2.3,0-4.4,0-6.7,0c0-2.2,0-4.4,0-6.5
		c-2.2,0-4.4,0-6.7,0c0,2.2,0,4.4,0,6.5c-2.2,0-4.4,0-6.6,0c0-2.2,0-4.4,0-6.5c-2.2,0-4.4,0-6.6,0c0,2.2,0,4.4,0,6.5
		c-2.3,0-4.4,0-6.7,0c0-2.2,0-4.3,0-6.5c-2.2,0-4.4,0-6.7,0c0,2.2,0,4.4,0,6.6c-2.2,0-4.4,0-6.6,0c0,2.2,0,4.4,0,6.7
		c-2.3,0-4.4,0-6.5,0c0,2.2,0,4.4,0,6.6c2.2,0,4.4,0,6.5,0c0,2.2,0,4.4,0,6.6c-2.2,0-4.4,0-6.5,0c0,2.3,0,4.4,0,6.7
		c2.2,0,4.3,0,6.5,0c0,2.2,0,4.4,0,6.7c-2.2,0-4.4,0-6.5,0c0,2.2,0,4.4,0,6.6c2.2,0,4.4,0,6.6,0C47.7,89.7,47.7,91.9,47.7,94.1z
		 M41,40.9c2.3,0,4.4,0,6.5,0c0-2.2,0-4.3,0-6.5c-2.2,0-4.4,0-6.5,0C41,36.6,41,38.8,41,40.9z M94.1,40.9c2.2,0,4.4,0,6.5,0
		c0-2.2,0-4.4,0-6.5c-2.2,0-4.4,0-6.5,0C94.1,36.6,94.1,38.8,94.1,40.9z M41.1,100.8c0,2.2,0,4.4,0,6.5c2.2,0,4.4,0,6.5,0
		c0-2.2,0-4.3,0-6.5C45.4,100.8,43.3,100.8,41.1,100.8z M94.1,107.3c2.3,0,4.4,0,6.5,0c0-2.2,0-4.3,0-6.5c-2.2,0-4.3,0-6.5,0
		C94.1,103,94.1,105.1,94.1,107.3z"/>
	<path class="st0" d="M14.2,41c2.2,0,4.3,0,6.6,0c0,19.9,0,39.7,0,59.7c-2.2,0-4.4,0-6.6,0C14.2,80.8,14.2,60.9,14.2,41z"/>
	<path class="st0" d="M127.5,100.7c-2.2,0-4.3,0-6.6,0c0-19.9,0-39.7,0-59.7c2.2,0,4.4,0,6.6,0C127.5,60.9,127.5,80.8,127.5,100.7z"
		/>
	<path class="st0" d="M54.4,54.3c11,0,22,0,33,0c0,11,0,22,0,33c-11,0-22,0-33,0C54.4,76.4,54.4,65.4,54.4,54.3z"/>
</g>
</svg>
