<?xml version="1.0" encoding="utf-8"?>
<!-- Generator: Adobe Illustrator 24.0.1, SVG Export Plug-In . SVG Version: 6.00 Build 0)  -->
<svg version="1.1" id="Layer_1" xmlns="http://www.w3.org/2000/svg" xmlns:xlink="http://www.w3.org/1999/xlink" x="0px" y="0px"
	 viewBox="0 0 141.7 141.7" style="enable-background:new 0 0 141.7 141.7;" xml:space="preserve">
<style type="text/css">
	.st0{fill:#FECF0A;}
	.st1{fill:#231F20;}
</style>
<g>
	<path class="st0" d="M89.8,24.6l1.4,3.1c0.6,1.2,1.9,1.9,3.2,1.7l3.3-0.6c1.6-0.3,3.2,0.8,3.4,2.4l0.6,3.3c0.2,1.3,1.3,2.3,2.7,2.4
		l3.4,0.3c1.6,0.1,2.9,1.6,2.7,3.2l-0.3,3.4c-0.1,1.3,0.7,2.6,2,3l3.2,1.1c1.6,0.5,2.4,2.3,1.8,3.8l-1.2,3.2c-0.5,1.3,0,2.7,1.1,3.4
		l2.8,1.9c1.4,0.9,1.7,2.8,0.7,4.1l-1.9,2.7c-0.8,1.1-0.7,2.6,0.2,3.6l2.2,2.6c1.1,1.2,0.9,3.1-0.3,4.2l-2.6,2.2
		c-1,0.9-1.4,2.3-0.8,3.5l1.5,3c0.7,1.5,0.1,3.3-1.4,3.9l-3.1,1.4c-1.2,0.6-1.9,1.9-1.7,3.2l0.6,3.3c0.3,1.6-0.8,3.2-2.4,3.4
		l-3.3,0.6c-1.3,0.2-2.3,1.3-2.4,2.7l-0.3,3.4c-0.1,1.6-1.6,2.9-3.2,2.7l-3.4-0.3c-1.3-0.1-2.6,0.7-3,2l-1.1,3.2
		c-0.5,1.6-2.3,2.4-3.8,1.8l-3.2-1.2c-1.3-0.5-2.7,0-3.4,1.1l-1.9,2.8c-0.9,1.4-2.8,1.7-4.1,0.7l-2.7-1.9c-1.1-0.8-2.6-0.7-3.6,0.2
		l-2.6,2.2c-1.2,1.1-3.1,0.9-4.2-0.3l-2.1-2.6c-0.9-1-2.3-1.4-3.5-0.8l-3,1.5c-1.5,0.7-3.3,0.1-3.9-1.4l-1.4-3.1
		c-0.6-1.2-1.9-1.9-3.2-1.7l-3.3,0.6c-1.6,0.3-3.2-0.8-3.4-2.4l-0.6-3.3c-0.2-1.3-1.3-2.3-2.7-2.4L34,105c-1.6-0.1-2.9-1.6-2.7-3.2
		l0.3-3.4c0.1-1.3-0.7-2.6-2-3l-3.2-1.1c-1.6-0.5-2.4-2.3-1.8-3.8l1.2-3.2c0.5-1.3,0-2.7-1.1-3.4L21.9,82c-1.4-0.9-1.7-2.8-0.7-4.1
		l1.9-2.7c0.8-1.1,0.7-2.6-0.2-3.6L20.8,69c-1.1-1.2-0.9-3.1,0.3-4.2l2.6-2.1c1-0.9,1.4-2.3,0.8-3.5l-1.5-3
		c-0.7-1.5-0.1-3.3,1.4-3.9l3.1-1.4c1.2-0.6,1.9-1.9,1.7-3.2l-0.6-3.3c-0.3-1.6,0.8-3.2,2.4-3.4l3.3-0.6c1.3-0.2,2.3-1.3,2.4-2.7
		l0.3-3.4c0.1-1.6,1.6-2.9,3.2-2.7l3.4,0.3c1.3,0.1,2.6-0.7,3-2l1.1-3.2c0.5-1.6,2.3-2.4,3.8-1.8l3.2,1.2c1.3,0.5,2.7,0,3.4-1.1
		l1.9-2.8c0.9-1.4,2.8-1.7,4.1-0.7l2.7,1.9c1.1,0.8,2.6,0.7,3.6-0.2L73,21c1.2-1.1,3.1-0.9,4.2,0.3l2.1,2.6c0.9,1,2.3,1.4,3.5,0.8
		l3-1.5C87.3,22.5,89.1,23.1,89.8,24.6z"/>
	<path class="st1" d="M57.1,109.3c-5.2-1.9-9.8-4.7-13.8-8.4c-3.9-3.6-7-7.8-9.2-12.6c-2.2-4.8-3.5-9.9-3.8-15.1
		c-0.3-5.4,0.5-10.8,2.3-16s4.7-9.8,8.4-13.8c3.6-3.9,7.8-7,12.6-9.2c4.8-2.2,9.9-3.5,15.1-3.8c5.4-0.3,10.8,0.5,16,2.3
		c5.2,1.9,9.8,4.7,13.8,8.4c3.9,3.6,7,7.8,9.2,12.6c2.2,4.8,3.5,9.9,3.8,15.1c0.3,5.4-0.5,10.8-2.3,16c-1.9,5.2-4.7,9.8-8.4,13.8
		c-3.6,3.9-7.8,7-12.6,9.2c-4.8,2.2-9.9,3.5-15.1,3.8C67.7,111.9,62.3,111.1,57.1,109.3z M84.2,33.9c-20.5-7.4-43.1,3.3-50.5,23.8
		s3.3,43.1,23.8,50.5c20.5,7.4,43.1-3.3,50.5-23.8S104.7,41.3,84.2,33.9z"/>
	<g>
		<path class="st1" d="M42,56.5l2.3-6.4l0.9,0.3l0.9,4c0.2,0.9,0.3,1.7,0.4,2.5l0,0c0.2-0.9,0.5-1.7,0.9-2.7l1-2.7l0.8,0.3l-2.3,6.4
			L46,57.9l-0.9-4c-0.2-0.9-0.4-1.8-0.4-2.6l0,0c-0.2,0.8-0.5,1.6-0.9,2.7l-1,2.8L42,56.5z"/>
		<path class="st1" d="M55,57.4c-0.8,2.2-2.6,2.9-4.2,2.3c-1.7-0.6-2.4-2.4-1.7-4.3c0.7-2,2.5-2.9,4.2-2.3
			C55.1,53.8,55.7,55.5,55,57.4z M50,55.7c-0.5,1.4-0.2,2.9,1.1,3.4c1.3,0.5,2.5-0.5,3-1.9c0.5-1.3,0.3-2.9-1.1-3.4
			C51.6,53.3,50.5,54.3,50,55.7z"/>
		<path class="st1" d="M61.9,64.7c-0.8-0.5-1.5-1.1-2.2-1.6c-0.1-0.1-0.2-0.2-0.4-0.2c-1.5-0.6-2.4-2.2-1.7-4.3
			c0.7-2.1,2.5-2.9,4.2-2.3c1.8,0.6,2.4,2.4,1.7,4.3c-0.6,1.7-1.7,2.4-2.9,2.4l0,0c0.6,0.4,1.2,0.8,1.7,1.1L61.9,64.7z M62.8,60.3
			c0.5-1.3,0.3-2.9-1.1-3.4c-1.4-0.5-2.6,0.5-3.1,1.9c-0.5,1.4-0.2,2.9,1.1,3.3C61,62.7,62.2,61.7,62.8,60.3z"/>
		<path class="st1" d="M66.7,58.1l-1.4,3.8c-0.5,1.4-0.1,2.3,0.8,2.6c1,0.3,1.8-0.1,2.3-1.5l1.4-3.8l0.8,0.3l-1.4,3.8
			c-0.7,2-2,2.4-3.4,1.9c-1.3-0.5-2-1.6-1.3-3.6l1.4-3.8L66.7,58.1z"/>
		<path class="st1" d="M74.2,64.6l-2.5-0.9L70.8,66l2.8,1l-0.3,0.7l-3.6-1.3l2.3-6.4l3.5,1.3l-0.3,0.7l-2.6-1l-0.7,2l2.5,0.9
			L74.2,64.6z"/>
		<path class="st1" d="M74.7,67.1c0.3,0.4,0.8,0.8,1.3,1c0.8,0.3,1.5,0,1.7-0.6c0.2-0.6,0-1.1-0.8-1.7c-0.9-0.8-1.4-1.5-1-2.4
			c0.4-1,1.5-1.5,2.7-1c0.7,0.2,1.1,0.6,1.3,0.8l-0.5,0.6c-0.2-0.2-0.5-0.5-1.1-0.7c-0.9-0.3-1.4,0.1-1.6,0.5
			c-0.2,0.6,0.1,1,0.8,1.7c0.9,0.8,1.3,1.5,1,2.5c-0.4,1-1.4,1.6-2.9,1c-0.6-0.2-1.2-0.7-1.5-1L74.7,67.1z"/>
		<path class="st1" d="M82.5,64.5l-2-0.7l0.3-0.7l4.8,1.7l-0.3,0.7l-2-0.7l-2.1,5.7l-0.8-0.3L82.5,64.5z"/>
		<path class="st1" d="M87.1,65.4l-2.3,6.4l-0.8-0.3l2.3-6.4L87.1,65.4z"/>
		<path class="st1" d="M92.9,71.1c-0.8,2.2-2.6,2.9-4.2,2.3C87,72.8,86.3,71,87,69.1c0.7-2,2.5-2.9,4.2-2.3
			C92.9,67.4,93.6,69.1,92.9,71.1z M87.9,69.4c-0.5,1.4-0.2,2.9,1.1,3.4c1.3,0.5,2.5-0.5,3-1.9c0.5-1.3,0.3-2.9-1.1-3.4
			C89.5,66.9,88.4,67.9,87.9,69.4z"/>
		<path class="st1" d="M92.8,74.7l2.3-6.4l0.9,0.3l0.9,4c0.2,0.9,0.3,1.7,0.4,2.5l0,0c0.2-0.9,0.5-1.7,0.9-2.7l1-2.7L100,70
			l-2.3,6.4l-0.8-0.3l-0.9-4c-0.2-0.9-0.4-1.8-0.4-2.6l0,0c-0.2,0.8-0.5,1.6-0.9,2.7l-1,2.8L92.8,74.7z"/>
		<path class="st1" d="M99.3,75.9c0.3,0.4,0.8,0.8,1.3,1c0.9,0.3,1.5,0,1.7-0.6c0.2-0.6,0-1.1-0.8-1.7c-0.9-0.8-1.4-1.5-1-2.4
			c0.4-1,1.5-1.5,2.7-1c0.7,0.2,1.1,0.6,1.3,0.8l-0.5,0.6c-0.2-0.2-0.5-0.5-1.1-0.7c-0.9-0.3-1.4,0.1-1.6,0.5
			c-0.2,0.6,0.1,1,0.8,1.7c0.9,0.8,1.3,1.5,1,2.5c-0.4,1-1.4,1.6-2.9,1c-0.6-0.2-1.2-0.7-1.5-1L99.3,75.9z"/>
		<path class="st1" d="M38.7,69.3l1-8.8l2,0.7l-0.6,3.6c-0.2,1-0.4,2.1-0.5,3l0,0c0.4-0.8,1-1.7,1.5-2.7l1.9-3.1l1.9,0.7l-0.6,3.6
			c-0.2,1-0.3,1.9-0.5,2.9l0,0c0.4-0.9,1-1.7,1.5-2.6l1.9-3.1l1.9,0.7l-5,7.3l-2-0.7l0.6-3.7c0.1-0.9,0.3-1.7,0.5-2.6l0,0
			c-0.5,0.9-0.9,1.6-1.4,2.3l-2,3.2L38.7,69.3z"/>
		<path class="st1" d="M50,71.1l-1.3,1.9l-1.9-0.7l5.4-7.2l2.4,0.9l-0.4,9l-2-0.7l0.1-2.3L50,71.1z M52.6,70.4l0.1-1.9
			c0-0.5,0.1-1.2,0.2-1.7l0,0c-0.3,0.4-0.6,1-0.9,1.4l-1.1,1.5L52.6,70.4z"/>
		<path class="st1" d="M58.1,67.3c0.6,0.1,1.5,0.4,2.5,0.7c1.2,0.4,2,0.9,2.4,1.6c0.3,0.6,0.4,1.2,0.1,2c-0.4,1-1.4,1.5-2.1,1.5l0,0
			c0.5,0.4,0.6,1.1,0.5,1.9c-0.1,1-0.2,2.1-0.2,2.5l-1.9-0.7c0-0.3,0-1,0.1-2.1c0.1-1.1-0.1-1.5-0.8-1.8l-0.6-0.2l-1.1,3.2l-1.8-0.7
			L58.1,67.3z M58.7,71.5l0.7,0.3c0.9,0.3,1.6,0.1,1.9-0.6c0.3-0.7-0.1-1.3-0.9-1.6c-0.4-0.2-0.7-0.2-0.8-0.2L58.7,71.5z"/>
		<path class="st1" d="M65.3,69.9c0.6,0.1,1.5,0.4,2.5,0.7c1.2,0.4,2,0.9,2.4,1.6c0.3,0.6,0.4,1.2,0.1,2c-0.4,1-1.4,1.5-2.1,1.5l0,0
			c0.5,0.4,0.6,1.1,0.5,1.9c-0.1,1-0.2,2.1-0.2,2.5l-1.9-0.7c0-0.3,0-1,0.1-2.1c0.1-1.1-0.1-1.5-0.8-1.8l-0.6-0.2l-1.1,3.2l-1.8-0.7
			L65.3,69.9z M65.8,74l0.7,0.3c0.9,0.3,1.6,0.1,1.9-0.6c0.3-0.7-0.1-1.3-0.9-1.6c-0.4-0.2-0.7-0.2-0.8-0.2L65.8,74z"/>
		<path class="st1" d="M72.2,79l-1.3,1.9L69,80.2l5.4-7.2l2.4,0.9l-0.4,9l-2-0.7l0.1-2.3L72.2,79z M74.8,78.4l0.1-1.9
			c0-0.5,0.1-1.2,0.2-1.7l0,0c-0.3,0.4-0.6,1-0.9,1.4L73,77.8L74.8,78.4z"/>
		<path class="st1" d="M77.5,83.3l2.9-8.1l2.1,0.8l0.6,3.6c0.2,1,0.3,2.2,0.3,3.2l0,0c0.3-1.1,0.6-2.2,1.1-3.4l0.9-2.4l1.7,0.6
			l-2.9,8.1L82.2,85l-0.6-3.7c-0.2-1-0.3-2.3-0.4-3.4h0c-0.3,1.1-0.7,2.2-1.2,3.5l-0.9,2.4L77.5,83.3z"/>
		<path class="st1" d="M89.6,80.3l-2.2-0.8l0.6-1.5l6.2,2.2l-0.6,1.5l-2.2-0.8l-2.4,6.5l-1.8-0.7L89.6,80.3z"/>
		<path class="st1" d="M94.2,89.3l1.2-3.3l-0.8-5.7l2.1,0.8l0.1,2.2c0,0.7,0.1,1.2,0.1,1.8l0,0c0.4-0.4,0.7-0.8,1.2-1.3l1.5-1.6
			l2.1,0.7l-4.4,3.8L96.1,90L94.2,89.3z"/>
	</g>
</g>
</svg>
