<?xml version="1.0" encoding="utf-8"?>
<!-- Generator: Adobe Illustrator 24.0.1, SVG Export Plug-In . SVG Version: 6.00 Build 0)  -->
<svg version="1.1" id="Layer_1" xmlns="http://www.w3.org/2000/svg" xmlns:xlink="http://www.w3.org/1999/xlink" x="0px" y="0px"
	 viewBox="0 0 141.7 141.7" style="enable-background:new 0 0 141.7 141.7;" xml:space="preserve">
<style type="text/css">
	.st0{fill:#231F20;}
</style>
<g>
	<path class="st0" d="M10.2,52.2c4.9-2.7,9.9-5.4,14.8-8.2c15-8.3,29.9-16.7,44.8-25c0.7-0.4,1.2-0.5,1.9-0.1c19.7,11,39.3,22,59,33
		c0.2,0.1,0.4,0.2,0.7,0.4c-0.4,0.2-0.7,0.5-1,0.6c-19.5,10.9-39.1,21.8-58.6,32.7c-0.8,0.4-1.3,0.4-2,0
		C50.4,74.7,30.9,63.8,11.5,52.9c-0.4-0.2-0.8-0.4-1.3-0.5C10.2,52.3,10.2,52.2,10.2,52.2z"/>
	<path class="st0" d="M10.2,89.4c1.9-1.5,3.8-3.1,5.7-4.6c1.5-1.2,1.5-1.2,3.1-0.4c17,9.1,33.9,18.2,50.9,27.4
		c0.8,0.4,1.4,0.4,2.1,0c17.1-9.3,34.2-18.5,51.3-27.8c0.8-0.5,1.3-0.4,2,0.2c2,1.8,4.1,3.5,6.2,5.3c-0.4,0.2-0.7,0.4-1,0.6
		C111,101,91.5,111.9,72,122.8c-0.8,0.5-1.4,0.5-2.3,0c-19.6-11-39.2-21.9-58.8-32.8c-0.2-0.1-0.5-0.2-0.7-0.4
		C10.2,89.5,10.2,89.5,10.2,89.4z"/>
	<path class="st0" d="M10.2,70.9c2.3-2,4.6-3.9,6.8-5.7c0.2-0.2,0.9,0,1.2,0.2C28.7,71,39.1,76.6,49.5,82.1
		c6.8,3.7,13.6,7.3,20.4,11c0.7,0.4,1.3,0.4,2,0c17.1-9.3,34.2-18.5,51.3-27.8c0.8-0.5,1.4-0.5,2.1,0.2c2,1.8,4.1,3.5,6.2,5.3
		c-0.4,0.3-0.7,0.5-1.1,0.7c-19.5,10.9-39.1,21.8-58.6,32.7c-0.6,0.3-1.1,0.5-1.8,0.1c-19.7-11-39.3-22-59-33
		C10.8,71.2,10.6,71.1,10.2,70.9z"/>
</g>
</svg>
