<?xml version="1.0" encoding="utf-8"?>
<!-- Generator: Adobe Illustrator 24.0.1, SVG Export Plug-In . SVG Version: 6.00 Build 0)  -->
<svg version="1.1" id="Layer_1" xmlns="http://www.w3.org/2000/svg" xmlns:xlink="http://www.w3.org/1999/xlink" x="0px" y="0px"
	 viewBox="0 0 141.7 141.7" style="enable-background:new 0 0 141.7 141.7;" xml:space="preserve">
<style type="text/css">
	.st0{fill:#231F20;}
</style>
<g>
	<path class="st0" d="M13.7,98.2c0-20.5,0-40.9,0-61.4c38.1,0,76.2,0,114.4,0c0,20.5,0,40.9,0,61.4c-2.3,0-4.5,0-6.9,0
		c0,2.3,0,4.5,0,6.7c-2.3,0-4.4,0-6.7,0c0-2.2,0-4.4,0-6.6c-2.3,0-4.4,0-6.7,0c0,2.2,0,4.4,0,6.5c-2.3,0-4.5,0-6.7,0
		c0-2.2,0-4.4,0-6.5c-2.3,0-4.4,0-6.7,0c0,2.2,0,4.4,0,6.5c-2.3,0-4.4,0-6.7,0c0-2.2,0-4.4,0-6.5c-2.3,0-4.4,0-6.7,0
		c0,2.2,0,4.4,0,6.6c-2.3,0-4.4,0-6.7,0c0-2.2,0-4.4,0-6.6c-2.3,0-4.4,0-6.7,0c0,2.2,0,4.4,0,6.6c-2.3,0-4.4,0-6.7,0
		c0-2.2,0-4.4,0-6.6c-2.3,0-4.5,0-6.7,0c0,2.2,0,4.4,0,6.5c-2.3,0-4.4,0-6.7,0c0-2.2,0-4.4,0-6.5c-2.3,0-4.4,0-6.7,0
		c0,2.2,0,4.4,0,6.5c-2.3,0-4.4,0-6.7,0c0-2.2,0-4.4,0-6.5c-2.3,0-4.4,0-6.7,0c0,2.2,0,4.4,0,6.5c-2.3,0-4.4,0-6.7,0
		c0-2.2,0-4.4,0-6.6C18.2,98.2,15.9,98.2,13.7,98.2z M114.6,84.8c0-11.6,0-23.1,0-34.5c-29.2,0-58.3,0-87.4,0c0,11.5,0,23,0,34.5
		C56.3,84.8,85.4,84.8,114.6,84.8z"/>
	<path class="st0" d="M33.8,78.1c0-7,0-14,0-21.1c6.7,0,13.4,0,20.2,0c0,7,0,14,0,21.1C47.3,78.1,40.6,78.1,33.8,78.1z"/>
	<path class="st0" d="M87.8,57c6.8,0,13.4,0,20.1,0c0,7,0,14,0,21.1c-6.7,0-13.4,0-20.1,0C87.8,71.1,87.8,64.1,87.8,57z"/>
	<path class="st0" d="M80.9,78.1c-6.7,0-13.3,0-20,0c0-7,0-14,0-21.1c6.6,0,13.3,0,20,0C80.9,64,80.9,71,80.9,78.1z"/>
</g>
</svg>
