<?xml version="1.0" encoding="utf-8"?>
<!-- Generator: Adobe Illustrator 24.0.1, SVG Export Plug-In . SVG Version: 6.00 Build 0)  -->
<svg version="1.1" id="Layer_1" xmlns="http://www.w3.org/2000/svg" xmlns:xlink="http://www.w3.org/1999/xlink" x="0px" y="0px"
	 viewBox="0 0 141.7 141.7" style="enable-background:new 0 0 141.7 141.7;" xml:space="preserve">
<style type="text/css">
	.st0{fill:#231F20;}
</style>
<path class="st0" d="M5.1,70.8c0.3-2.4,0.6-4.8,1-7.2c2.6-15.1,9.7-27.6,21-37.8c9.8-8.8,21.2-14.3,34.2-16
	c23.1-3,42.8,4.1,58.5,21.3c9.6,10.5,15,23,16.4,37.2c1.2,12-0.3,23.6-5.7,34.5c-5,10-12.4,17.5-23.1,21.3
	c-10.8,3.8-21.2,2.9-30.5-4.3c-5.5-4.2-8.8-9.9-10.5-16.6c-0.3-1.3-0.8-1.8-2.1-2C53,99.1,44.5,89.5,44,77.9
	c-0.3-5.9-0.1-11.7-0.1-17.6c0-1.3,0.5-1.8,1.8-1.8c2.3,0,4.7,0,7.2,0c0-0.6,0-1,0-1.5c0-4.5,0-9,0-13.5c0-3.4,1.9-5.7,4.9-6.2
	c2.9-0.5,5.7,1.5,6.3,4.4c0.1,0.7,0.2,1.4,0.2,2.2c0,4.4,0,8.7,0,13.1c0,0.5,0,0.9,0,1.5c4.3,0,8.5,0,12.9,0c0-0.5,0-0.9,0-1.4
	c0-4.6,0-9.2,0-13.7c0-4.1,3.3-6.7,7.1-5.9c2.7,0.6,4.4,2.9,4.4,6c0,4.5,0,9,0,13.5c0,0.5,0,0.9,0,1.6c2.3,0,4.4,0,6.6,0
	c2.1,0,2.4,0.3,2.4,2.5c0,5,0,10,0,15c0,12.2-7.4,21.8-19.2,25c-0.3,0.1-0.5,0.2-0.8,0.3c2.2,8.3,9.6,13.8,18.4,13.5
	c8-0.2,14.4-3.9,19.5-9.9c5.6-6.7,8.2-14.6,9.1-23.2c0.9-8.5,0.2-16.8-2.7-24.8c-4.3-11.9-11.8-21.3-22.5-28.1
	C90.2,22.9,80,20.2,69,20.6C55.9,21,44.5,25.7,34.7,34.4c-10.5,9.4-16.6,21.2-17.9,35.3c-1.3,14.3,2.5,27.3,11.3,38.7
	c4.2,5.4,9.3,9.8,15.1,13.3c2.7,1.6,3.7,3.9,3,6.6c-0.9,3.3-4.5,5.3-7.5,3.8c-2.7-1.4-5.3-3.1-7.8-5C17,116.2,8.6,102.1,5.9,84.6
	c-0.3-1.9-0.5-3.9-0.8-5.8C5.1,76.1,5.1,73.5,5.1,70.8z"/>
</svg>
