<?xml version="1.0" encoding="utf-8"?>
<!-- Generator: Adobe Illustrator 24.0.1, SVG Export Plug-In . SVG Version: 6.00 Build 0)  -->
<svg version="1.1" id="Layer_1" xmlns="http://www.w3.org/2000/svg" xmlns:xlink="http://www.w3.org/1999/xlink" x="0px" y="0px"
	 viewBox="0 0 141.7 141.7" style="enable-background:new 0 0 141.7 141.7;" xml:space="preserve">
<style type="text/css">
	.st0{fill:#231F20;}
</style>
<g>
	<path class="st0" d="M118.9,132.3c-31,0-62,0-93,0c0-40.7,0-81.4,0-122.2c31,0,62,0,93,0C118.9,50.8,118.9,91.5,118.9,132.3z
		 M90.3,96.2c0-3.9,0-7.6,0-11.3c0-1,0.3-1.5,1.1-2.1c10-7.7,14.5-17.9,12.9-30.4C102,34.8,85.7,22.6,68.1,24.9
		c-20.6,2.7-33.2,24.3-25.6,43.6c0.3,0.7,0.3,1.2-0.2,1.9c-4.7,7-0.8,16.6,7.5,18.3c1.5,0.3,3.1,0.2,4.7,0.3c0,2.3,0,4.7,0,7.2
		c-2.4,0-4.7,0-7,0c0,2.5,0,4.8,0,7.1c4.8,0,9.4,0,14.2,0c0-5.4,0-10.7,0-16c2.4,0.6,4.8,1.1,7.1,1.6c0,7.2,0,14.3,0,21.6
		c-2.4,0-4.7,0-7,0c0,2.5,0,4.8,0,7.1c7.2,0,14.2,0,21.3,0c0-2.4,0-4.7,0-7.1c-2.4,0-4.7,0-7,0c0-7.3,0-14.6,0-21.7
		c2.4-0.5,4.7-1.1,7.1-1.6c0,5.4,0,10.8,0,16.1c4.8,0,9.5,0,14.2,0c0-2.4,0-4.7,0-7.1C95,96.2,92.7,96.2,90.3,96.2z M40.3,24.7
		c0,2.4,0,4.7,0,7c2.4,0,4.7,0,7,0c0-2.4,0-4.7,0-7C44.9,24.7,42.6,24.7,40.3,24.7z M97.5,31.7c2.4,0,4.7,0,7,0c0-2.4,0-4.7,0-7
		c-2.4,0-4.7,0-7,0C97.5,27.1,97.5,29.4,97.5,31.7z M47.3,117.7c0-2.4,0-4.7,0-7.1c-2.4,0-4.7,0-7,0c0,2.4,0,4.7,0,7.1
		C42.6,117.7,44.9,117.7,47.3,117.7z M97.5,110.6c0,2.4,0,4.7,0,7c2.4,0,4.7,0,7,0c0-2.4,0-4.7,0-7
		C102.1,110.6,99.9,110.6,97.5,110.6z"/>
	<path class="st0" d="M62.1,60.1c-4.3,1.7-8.7,3.4-13,5.1c-3.9-8.9-1.2-21.4,8.4-28.5c9.7-7.2,23.2-6.4,32,1.9
		c8.9,8.4,10.5,21.8,3.8,32C87,80.3,74.2,84.6,64,80.2c1.7-4.3,3.4-8.7,5.1-13.1c4,1.1,7.7,0.3,10.7-2.5c2.2-2.1,3.3-4.8,3.3-7.9
		c-0.1-6.1-5.4-10.9-11.5-10.5C65.9,46.5,60,52.2,62.1,60.1z"/>
	<path class="st0" d="M61,68.3c-0.5,1.2-0.9,2.3-1.3,3.3c-0.9,2.4-1.9,4.8-2.8,7.2c-0.9,2.3-3.1,3.5-5.3,3.1
		c-2.2-0.3-3.9-2.1-4.2-4.3c-0.3-2.2,0.9-4.3,3.1-5.2C53.9,71,57.3,69.7,61,68.3z"/>
	<path class="st0" d="M72.4,53.3c1.9,0,3.6,1.6,3.6,3.5c0,2-1.7,3.6-3.6,3.6c-1.9,0-3.5-1.7-3.5-3.6C68.8,54.9,70.5,53.3,72.4,53.3z
		"/>
</g>
</svg>
