<?xml version="1.0" encoding="UTF-8"?>
<svg width="752pt" height="752pt" version="1.1" viewBox="0 0 752 752" xmlns="http://www.w3.org/2000/svg">
 <g>
  <path d="m582.11 387.35c-6.5312-51.547-39.535-95.926-87.023-117.02 11.953 35.734 12.23 74.34 0.79687 110.24-11.438 35.902-33.996 67.234-64.414 89.469s-67.121 34.219-104.8 34.219h-1.582c23.75 26.699 56.398 43.848 91.855 48.246 6.0586 0.70703 12.152 1.0703 18.254 1.0859 24.836-0.007812 49.27-6.2852 71.035-18.254 0.92578-0.62891 2.0859-0.80859 3.1602-0.49219l48.84 14.602h-0.003906c3.8789 1.1953 8.0586 0.93359 11.754-0.73438 3.6992-1.6719 6.6602-4.6328 8.3281-8.3281 1.668-3.6992 1.9297-7.8789 0.73828-11.754l-14.605-48.84c-0.26172-1.0625-0.12109-2.1875 0.39844-3.1562 15.043-27.191 21.086-58.449 17.266-89.289z"/>
  <path d="m178.68 484.53h148c41.867 0 82.02-16.633 111.62-46.238 29.605-29.602 46.238-69.754 46.238-111.62s-16.633-82.02-46.238-111.62c-29.602-29.605-69.754-46.238-111.62-46.238s-82.02 16.633-111.62 46.238-46.238 69.758-46.238 111.62v147.99c0 2.6172 1.0391 5.125 2.8906 6.9766 1.8516 1.8516 4.3594 2.8906 6.9766 2.8906zm78.93-187.46h118.39c5.4492 0 9.8672 4.418 9.8672 9.8672s-4.418 9.8672-9.8672 9.8672h-118.39c-5.4492 0-9.8672-4.418-9.8672-9.8672s4.418-9.8672 9.8672-9.8672zm0 59.199h78.93c5.4492 0 9.8672 4.418 9.8672 9.8672s-4.418 9.8633-9.8672 9.8633h-78.93c-5.4492 0-9.8672-4.4141-9.8672-9.8633s4.418-9.8672 9.8672-9.8672z"/>
 </g>
</svg>
