<?xml version="1.0" encoding="utf-8"?>
<!-- Generator: Adobe Illustrator 16.0.0, SVG Export Plug-In . SVG Version: 6.00 Build 0)  -->
<!DOCTYPE svg PUBLIC "-//W3C//DTD SVG 1.1//EN" "http://www.w3.org/Graphics/SVG/1.1/DTD/svg11.dtd">
<svg version="1.1" id="Layer_1" xmlns="http://www.w3.org/2000/svg" xmlns:xlink="http://www.w3.org/1999/xlink" x="0px" y="0px"
	 width="119.98px" height="107.48px" viewBox="0 0 119.98 107.48" enable-background="new 0 0 119.98 107.48" xml:space="preserve">
<g>
	<g>
		<path fill="#FECF0A" d="M4.663,94.235H0.536C0.24,94.235,0,93.995,0,93.699v-3.137c0-0.296,0.24-0.536,0.536-0.536h14.128
			c0.296,0,0.536,0.24,0.536,0.536v3.137c0,0.296-0.24,0.536-0.536,0.536h-4.126c-0.296,0-0.536,0.24-0.536,0.536v12.049
			c0,0.296-0.24,0.536-0.536,0.536h-3.73c-0.296,0-0.536-0.24-0.536-0.536V94.771C5.199,94.475,4.959,94.235,4.663,94.235z"/>
		<path fill="#FECF0A" d="M20.318,90.026h3.73c0.296,0,0.537,0.24,0.537,0.536v5.414c0,0.296,0.24,0.536,0.536,0.536h5.092
			c0.296,0,0.537-0.24,0.537-0.536v-5.414c0-0.296,0.24-0.536,0.536-0.536h3.73c0.296,0,0.537,0.24,0.537,0.536v16.258
			c0,0.296-0.24,0.536-0.537,0.536h-3.73c-0.296,0-0.536-0.24-0.536-0.536v-5.513c0-0.297-0.24-0.537-0.537-0.537h-5.092
			c-0.296,0-0.536,0.24-0.536,0.537v5.513c0,0.296-0.24,0.536-0.537,0.536h-3.73c-0.296,0-0.536-0.24-0.536-0.536V90.562
			C19.782,90.266,20.022,90.026,20.318,90.026z"/>
		<path fill="#FECF0A" d="M41.636,90.026h12.866c0.296,0,0.536,0.24,0.536,0.536v3.013c0,0.296-0.24,0.536-0.536,0.536h-8.112
			c-0.296,0-0.536,0.24-0.536,0.536v1.552c0,0.296,0.24,0.536,0.536,0.536h7.246c0.296,0,0.536,0.24,0.536,0.537v2.715
			c0,0.297-0.24,0.536-0.536,0.536h-7.246c-0.296,0-0.536,0.24-0.536,0.536v1.676c0,0.296,0.24,0.536,0.536,0.536h8.236
			c0.296,0,0.536,0.24,0.536,0.536v3.013c0,0.296-0.24,0.536-0.536,0.536h-12.99c-0.296,0-0.536-0.24-0.536-0.536V90.562
			C41.1,90.266,41.339,90.026,41.636,90.026z"/>
		<path fill="#FFFFFF" d="M60.626,90.026h4.239c0.187,0,0.359,0.097,0.457,0.255l3.521,5.714c0.21,0.34,0.704,0.34,0.913,0
			l3.521-5.714c0.098-0.158,0.27-0.255,0.456-0.255h4.239c0.297,0,0.537,0.24,0.537,0.536v16.258c0,0.296-0.24,0.536-0.537,0.536
			h-3.705c-0.297,0-0.537-0.24-0.537-0.536v-7.615c0-0.533-0.693-0.739-0.984-0.293l-3.447,5.275h-0.098l-3.423-5.229
			c-0.292-0.445-0.985-0.238-0.985,0.294v7.568c0,0.296-0.239,0.536-0.535,0.536h-3.632c-0.296,0-0.536-0.24-0.536-0.536V90.562
			C60.09,90.266,60.33,90.026,60.626,90.026z"/>
		<path fill="#FFFFFF" d="M83.465,90.026h4.201c0.226,0,0.428,0.143,0.504,0.355l3.305,9.206c0.17,0.474,0.839,0.474,1.009,0
			l3.304-9.206c0.077-0.213,0.279-0.355,0.506-0.355h4.102c0.38,0,0.639,0.385,0.498,0.736l-6.6,16.382
			c-0.082,0.203-0.279,0.336-0.498,0.336h-3.731c-0.219,0-0.415-0.133-0.497-0.336l-6.6-16.382
			C82.824,90.411,83.084,90.026,83.465,90.026z"/>
		<path fill="#FFFFFF" d="M105.35,90.562c0-0.296,0.24-0.536,0.535-0.536h6.892c4.382,0,7.204,2.253,7.204,6.09v0.05
			c0,4.085-3.144,6.239-7.451,6.239h-1.841c-0.296,0-0.536,0.24-0.536,0.536v3.879c0,0.296-0.24,0.536-0.536,0.536h-3.731
			c-0.295,0-0.535-0.24-0.535-0.536V90.562z M112.43,98.641c1.709,0,2.748-0.891,2.748-2.252v-0.05c0-1.485-1.039-2.278-2.772-2.278
			h-1.717c-0.296,0-0.536,0.24-0.536,0.537v3.508c0,0.295,0.24,0.535,0.536,0.535H112.43z"/>
	</g>
	<g>
		<path fill="#FECF0A" d="M56.207,39.209l0.208-0.16c-1.144-1.605-1.819-3.569-1.819-5.691H54.22l-19.503,0.758
			c0.231,5.985,2.265,11.913,6.102,16.901L56.207,39.209L56.207,39.209z"/>
		<path fill="#FECF0A" d="M39.04,0l-9.178,9.178l1.851,7.154c-2.443,4.658-3.871,9.883-4.142,15.161L22.5,36.651l3.85,14.368
			l6.78,1.879c1.462,2.327,3.191,4.493,5.143,6.444c1.92,1.92,4.047,3.624,6.327,5.069l1.862,6.72l14.369,3.85l5.008-4.924
			c5.427-0.237,10.794-1.693,15.57-4.222l6.895,1.784l9.178-9.179L39.04,0z M87.709,65.441l-6.555-1.696l-0.339,0.185
			c-4.708,2.559-10.042,4.005-15.427,4.184l-0.381,0.013l-4.753,4.672l-12.203-3.27l-1.767-6.375l-0.326-0.202
			c-2.276-1.409-4.396-3.09-6.3-4.994c-1.935-1.935-3.638-4.093-5.063-6.413l-0.202-0.329l-6.441-1.785l-3.27-12.204l4.813-4.896
			l0.016-0.377c0.214-5.241,1.635-10.439,4.108-15.033l0.182-0.338l-1.762-6.81l7-7l55.669,55.669L87.709,65.441z"/>
		<path fill="#FECF0A" d="M54.851,31.136c0.442-1.907,1.439-3.599,2.812-4.9l-0.894-0.956L43.433,11.944
			c-0.019,0.018-0.038,0.036-0.056,0.054c-4.348,4.348-7.063,9.71-8.146,15.325l19.052,3.692L54.851,31.136z"/>
		<path fill="#FECF0A" d="M45.561,55.91c4.88,4.005,10.739,6.216,16.699,6.634l1.367-19.398c-2.16-0.172-4.123-1.042-5.663-2.386
			L45.561,55.91z"/>
		<path fill="#FECF0A" d="M69.318,38.117l-9.82-9.82c-0.061,0.057-0.126,0.108-0.186,0.168c-2.716,2.716-2.716,7.121,0,9.838
			c2.717,2.716,7.122,2.716,9.838,0C69.209,38.243,69.261,38.178,69.318,38.117z"/>
		<path fill="#FECF0A" d="M71.919,40.432L71.919,40.432l-0.345-0.352l-0.014,0.013c-1.455,1.542-3.4,2.614-5.59,2.962l0.042,0.252
			l3.054,18.931c5.947-0.955,11.66-3.723,16.244-8.307c0.02-0.018,0.037-0.037,0.055-0.056L71.969,40.48L71.919,40.432z"/>
	</g>
</g>
</svg>
